<mxfile host="app.diagrams.net" modified="2023-02-15T18:58:27.917Z" agent="5.0 (Windows NT 10.0; Win64; x64) AppleWebKit/537.36 (KHTML, like Gecko) Chrome/108.0.0.0 Safari/537.36 OPR/94.0.0.0" etag="zqhdbN3jjRW94L0lVtRP" version="20.8.20" type="github">
  <diagram name="PÃ¡gina-1" id="lt4oC5ux750yqaEo4UEf">
    <mxGraphModel dx="1161" dy="632" grid="1" gridSize="10" guides="1" tooltips="1" connect="1" arrows="1" fold="1" page="1" pageScale="1" pageWidth="827" pageHeight="1169" math="0" shadow="0">
      <root>
        <mxCell id="0" />
        <mxCell id="1" parent="0" />
        <mxCell id="RurWiZB8BcjZz6UFfZch-28" value="MEDICO" style="whiteSpace=wrap;html=1;align=center;fillColor=#cdeb8b;strokeColor=#36393d;" vertex="1" parent="1">
          <mxGeometry x="150" y="80" width="100" height="40" as="geometry" />
        </mxCell>
        <mxCell id="RurWiZB8BcjZz6UFfZch-44" style="rounded=0;orthogonalLoop=1;jettySize=auto;html=1;endArrow=none;endFill=0;startArrow=none;startFill=0;" edge="1" parent="1" source="RurWiZB8BcjZz6UFfZch-29" target="RurWiZB8BcjZz6UFfZch-38">
          <mxGeometry relative="1" as="geometry" />
        </mxCell>
        <mxCell id="RurWiZB8BcjZz6UFfZch-29" value="PACIENTE" style="whiteSpace=wrap;html=1;align=center;fillColor=#cdeb8b;strokeColor=#36393d;" vertex="1" parent="1">
          <mxGeometry x="150" y="320" width="100" height="40" as="geometry" />
        </mxCell>
        <mxCell id="RurWiZB8BcjZz6UFfZch-50" style="edgeStyle=none;rounded=0;orthogonalLoop=1;jettySize=auto;html=1;startArrow=none;startFill=0;endArrow=none;endFill=0;" edge="1" parent="1" source="RurWiZB8BcjZz6UFfZch-30" target="RurWiZB8BcjZz6UFfZch-28">
          <mxGeometry relative="1" as="geometry" />
        </mxCell>
        <mxCell id="RurWiZB8BcjZz6UFfZch-30" value="crm" style="ellipse;whiteSpace=wrap;html=1;align=center;fontStyle=4;" vertex="1" parent="1">
          <mxGeometry x="20" y="130" width="100" height="40" as="geometry" />
        </mxCell>
        <mxCell id="RurWiZB8BcjZz6UFfZch-51" style="edgeStyle=none;rounded=0;orthogonalLoop=1;jettySize=auto;html=1;startArrow=none;startFill=0;endArrow=none;endFill=0;" edge="1" parent="1" source="RurWiZB8BcjZz6UFfZch-31" target="RurWiZB8BcjZz6UFfZch-28">
          <mxGeometry relative="1" as="geometry" />
        </mxCell>
        <mxCell id="RurWiZB8BcjZz6UFfZch-31" value="nome" style="ellipse;whiteSpace=wrap;html=1;align=center;" vertex="1" parent="1">
          <mxGeometry x="20" y="30" width="100" height="40" as="geometry" />
        </mxCell>
        <mxCell id="RurWiZB8BcjZz6UFfZch-52" style="edgeStyle=none;rounded=0;orthogonalLoop=1;jettySize=auto;html=1;startArrow=none;startFill=0;endArrow=none;endFill=0;" edge="1" parent="1" source="RurWiZB8BcjZz6UFfZch-32" target="RurWiZB8BcjZz6UFfZch-28">
          <mxGeometry relative="1" as="geometry" />
        </mxCell>
        <mxCell id="RurWiZB8BcjZz6UFfZch-32" value="salario" style="ellipse;whiteSpace=wrap;html=1;align=center;" vertex="1" parent="1">
          <mxGeometry x="150" y="10" width="100" height="40" as="geometry" />
        </mxCell>
        <mxCell id="RurWiZB8BcjZz6UFfZch-53" style="edgeStyle=none;rounded=0;orthogonalLoop=1;jettySize=auto;html=1;startArrow=none;startFill=0;endArrow=none;endFill=0;" edge="1" parent="1" source="RurWiZB8BcjZz6UFfZch-62" target="RurWiZB8BcjZz6UFfZch-28">
          <mxGeometry relative="1" as="geometry" />
        </mxCell>
        <mxCell id="RurWiZB8BcjZz6UFfZch-83" style="edgeStyle=none;rounded=0;orthogonalLoop=1;jettySize=auto;html=1;startArrow=none;startFill=0;endArrow=none;endFill=0;" edge="1" parent="1" source="RurWiZB8BcjZz6UFfZch-33" target="RurWiZB8BcjZz6UFfZch-28">
          <mxGeometry relative="1" as="geometry" />
        </mxCell>
        <mxCell id="RurWiZB8BcjZz6UFfZch-33" value="especialidades" style="ellipse;whiteSpace=wrap;html=1;align=center;" vertex="1" parent="1">
          <mxGeometry x="280" y="30" width="100" height="40" as="geometry" />
        </mxCell>
        <mxCell id="RurWiZB8BcjZz6UFfZch-45" style="edgeStyle=none;rounded=0;orthogonalLoop=1;jettySize=auto;html=1;startArrow=none;startFill=0;endArrow=none;endFill=0;" edge="1" parent="1" source="RurWiZB8BcjZz6UFfZch-35" target="RurWiZB8BcjZz6UFfZch-29">
          <mxGeometry relative="1" as="geometry" />
        </mxCell>
        <mxCell id="RurWiZB8BcjZz6UFfZch-35" value="nome" style="ellipse;whiteSpace=wrap;html=1;align=center;" vertex="1" parent="1">
          <mxGeometry x="20" y="370" width="100" height="40" as="geometry" />
        </mxCell>
        <mxCell id="RurWiZB8BcjZz6UFfZch-46" style="edgeStyle=none;rounded=0;orthogonalLoop=1;jettySize=auto;html=1;startArrow=none;startFill=0;endArrow=none;endFill=0;" edge="1" parent="1" source="RurWiZB8BcjZz6UFfZch-36" target="RurWiZB8BcjZz6UFfZch-29">
          <mxGeometry relative="1" as="geometry" />
        </mxCell>
        <mxCell id="RurWiZB8BcjZz6UFfZch-36" value="rg" style="ellipse;whiteSpace=wrap;html=1;align=center;" vertex="1" parent="1">
          <mxGeometry x="20" y="270" width="100" height="40" as="geometry" />
        </mxCell>
        <mxCell id="RurWiZB8BcjZz6UFfZch-47" style="edgeStyle=none;rounded=0;orthogonalLoop=1;jettySize=auto;html=1;startArrow=none;startFill=0;endArrow=none;endFill=0;" edge="1" parent="1" source="RurWiZB8BcjZz6UFfZch-37" target="RurWiZB8BcjZz6UFfZch-29">
          <mxGeometry relative="1" as="geometry" />
        </mxCell>
        <mxCell id="RurWiZB8BcjZz6UFfZch-37" value="endereco" style="ellipse;whiteSpace=wrap;html=1;align=center;" vertex="1" parent="1">
          <mxGeometry x="270" y="370" width="100" height="40" as="geometry" />
        </mxCell>
        <mxCell id="RurWiZB8BcjZz6UFfZch-38" value="cpf" style="ellipse;whiteSpace=wrap;html=1;align=center;fontStyle=4;" vertex="1" parent="1">
          <mxGeometry x="150" y="240" width="100" height="40" as="geometry" />
        </mxCell>
        <mxCell id="RurWiZB8BcjZz6UFfZch-56" style="edgeStyle=none;rounded=0;orthogonalLoop=1;jettySize=auto;html=1;startArrow=none;startFill=0;endArrow=none;endFill=0;" edge="1" parent="1" source="RurWiZB8BcjZz6UFfZch-39" target="RurWiZB8BcjZz6UFfZch-54">
          <mxGeometry relative="1" as="geometry" />
        </mxCell>
        <mxCell id="RurWiZB8BcjZz6UFfZch-39" value="ESPECIALIDADE" style="whiteSpace=wrap;html=1;align=center;fillColor=#cdeb8b;strokeColor=#36393d;" vertex="1" parent="1">
          <mxGeometry x="700" y="80" width="100" height="40" as="geometry" />
        </mxCell>
        <mxCell id="RurWiZB8BcjZz6UFfZch-84" style="edgeStyle=none;rounded=0;orthogonalLoop=1;jettySize=auto;html=1;startArrow=none;startFill=0;endArrow=none;endFill=0;" edge="1" parent="1" source="RurWiZB8BcjZz6UFfZch-40" target="RurWiZB8BcjZz6UFfZch-29">
          <mxGeometry relative="1" as="geometry" />
        </mxCell>
        <mxCell id="RurWiZB8BcjZz6UFfZch-40" value="telefone" style="ellipse;whiteSpace=wrap;html=1;align=center;" vertex="1" parent="1">
          <mxGeometry x="10" y="320" width="100" height="40" as="geometry" />
        </mxCell>
        <mxCell id="RurWiZB8BcjZz6UFfZch-49" style="edgeStyle=none;rounded=0;orthogonalLoop=1;jettySize=auto;html=1;startArrow=none;startFill=0;endArrow=none;endFill=0;" edge="1" parent="1" source="RurWiZB8BcjZz6UFfZch-41" target="RurWiZB8BcjZz6UFfZch-29">
          <mxGeometry relative="1" as="geometry" />
        </mxCell>
        <mxCell id="RurWiZB8BcjZz6UFfZch-41" value="data_nascimento" style="ellipse;whiteSpace=wrap;html=1;align=center;" vertex="1" parent="1">
          <mxGeometry x="150" y="390" width="100" height="40" as="geometry" />
        </mxCell>
        <mxCell id="RurWiZB8BcjZz6UFfZch-42" value="QUARTO" style="whiteSpace=wrap;html=1;align=center;fillColor=#cdeb8b;strokeColor=#36393d;" vertex="1" parent="1">
          <mxGeometry x="430" y="240" width="100" height="40" as="geometry" />
        </mxCell>
        <mxCell id="RurWiZB8BcjZz6UFfZch-81" style="edgeStyle=none;rounded=0;orthogonalLoop=1;jettySize=auto;html=1;startArrow=none;startFill=0;endArrow=none;endFill=0;" edge="1" parent="1" source="RurWiZB8BcjZz6UFfZch-54" target="RurWiZB8BcjZz6UFfZch-28">
          <mxGeometry relative="1" as="geometry" />
        </mxCell>
        <mxCell id="RurWiZB8BcjZz6UFfZch-54" value="especialista" style="shape=rhombus;perimeter=rhombusPerimeter;whiteSpace=wrap;html=1;align=center;fillColor=#d5e8d4;strokeColor=#82b366;" vertex="1" parent="1">
          <mxGeometry x="440" y="70" width="120" height="60" as="geometry" />
        </mxCell>
        <mxCell id="RurWiZB8BcjZz6UFfZch-74" style="edgeStyle=none;rounded=0;orthogonalLoop=1;jettySize=auto;html=1;startArrow=none;startFill=0;endArrow=none;endFill=0;" edge="1" parent="1" source="RurWiZB8BcjZz6UFfZch-61" target="RurWiZB8BcjZz6UFfZch-29">
          <mxGeometry relative="1" as="geometry" />
        </mxCell>
        <mxCell id="RurWiZB8BcjZz6UFfZch-75" style="edgeStyle=none;rounded=0;orthogonalLoop=1;jettySize=auto;html=1;startArrow=none;startFill=0;endArrow=none;endFill=0;" edge="1" parent="1" source="RurWiZB8BcjZz6UFfZch-61" target="RurWiZB8BcjZz6UFfZch-28">
          <mxGeometry relative="1" as="geometry" />
        </mxCell>
        <mxCell id="RurWiZB8BcjZz6UFfZch-61" value="medico_responsavel" style="shape=rhombus;perimeter=rhombusPerimeter;whiteSpace=wrap;html=1;align=center;fillColor=#d5e8d4;strokeColor=#82b366;" vertex="1" parent="1">
          <mxGeometry x="30" y="190" width="120" height="60" as="geometry" />
        </mxCell>
        <mxCell id="RurWiZB8BcjZz6UFfZch-72" style="edgeStyle=none;rounded=0;orthogonalLoop=1;jettySize=auto;html=1;startArrow=none;startFill=0;endArrow=none;endFill=0;" edge="1" parent="1" source="RurWiZB8BcjZz6UFfZch-62" target="RurWiZB8BcjZz6UFfZch-29">
          <mxGeometry relative="1" as="geometry" />
        </mxCell>
        <mxCell id="RurWiZB8BcjZz6UFfZch-73" style="edgeStyle=none;rounded=0;orthogonalLoop=1;jettySize=auto;html=1;startArrow=none;startFill=0;endArrow=none;endFill=0;" edge="1" parent="1" source="RurWiZB8BcjZz6UFfZch-62" target="RurWiZB8BcjZz6UFfZch-28">
          <mxGeometry relative="1" as="geometry" />
        </mxCell>
        <mxCell id="RurWiZB8BcjZz6UFfZch-68" style="edgeStyle=none;rounded=0;orthogonalLoop=1;jettySize=auto;html=1;startArrow=none;startFill=0;endArrow=none;endFill=0;" edge="1" parent="1" source="RurWiZB8BcjZz6UFfZch-64" target="RurWiZB8BcjZz6UFfZch-42">
          <mxGeometry relative="1" as="geometry" />
        </mxCell>
        <mxCell id="RurWiZB8BcjZz6UFfZch-64" value="numero" style="ellipse;whiteSpace=wrap;html=1;align=center;" vertex="1" parent="1">
          <mxGeometry x="430" y="400" width="100" height="40" as="geometry" />
        </mxCell>
        <mxCell id="RurWiZB8BcjZz6UFfZch-65" value="ANDAR" style="whiteSpace=wrap;html=1;align=center;fillColor=#cdeb8b;strokeColor=#36393d;" vertex="1" parent="1">
          <mxGeometry x="700" y="240" width="100" height="40" as="geometry" />
        </mxCell>
        <mxCell id="RurWiZB8BcjZz6UFfZch-70" style="edgeStyle=none;rounded=0;orthogonalLoop=1;jettySize=auto;html=1;startArrow=none;startFill=0;endArrow=none;endFill=0;" edge="1" parent="1" source="RurWiZB8BcjZz6UFfZch-66" target="RurWiZB8BcjZz6UFfZch-65">
          <mxGeometry relative="1" as="geometry" />
        </mxCell>
        <mxCell id="RurWiZB8BcjZz6UFfZch-71" style="edgeStyle=none;rounded=0;orthogonalLoop=1;jettySize=auto;html=1;startArrow=none;startFill=0;endArrow=none;endFill=0;" edge="1" parent="1" source="RurWiZB8BcjZz6UFfZch-66" target="RurWiZB8BcjZz6UFfZch-42">
          <mxGeometry relative="1" as="geometry" />
        </mxCell>
        <mxCell id="RurWiZB8BcjZz6UFfZch-66" value="numero_andar_quarto" style="shape=rhombus;perimeter=rhombusPerimeter;whiteSpace=wrap;html=1;align=center;fillColor=#d5e8d4;strokeColor=#82b366;" vertex="1" parent="1">
          <mxGeometry x="550" y="310" width="120" height="60" as="geometry" />
        </mxCell>
        <mxCell id="RurWiZB8BcjZz6UFfZch-69" style="edgeStyle=none;rounded=0;orthogonalLoop=1;jettySize=auto;html=1;startArrow=none;startFill=0;endArrow=none;endFill=0;" edge="1" parent="1" source="RurWiZB8BcjZz6UFfZch-67" target="RurWiZB8BcjZz6UFfZch-65">
          <mxGeometry relative="1" as="geometry" />
        </mxCell>
        <mxCell id="RurWiZB8BcjZz6UFfZch-67" value="numero" style="ellipse;whiteSpace=wrap;html=1;align=center;" vertex="1" parent="1">
          <mxGeometry x="700" y="400" width="100" height="40" as="geometry" />
        </mxCell>
        <mxCell id="RurWiZB8BcjZz6UFfZch-77" style="edgeStyle=none;rounded=0;orthogonalLoop=1;jettySize=auto;html=1;startArrow=none;startFill=0;endArrow=none;endFill=0;" edge="1" parent="1" source="RurWiZB8BcjZz6UFfZch-76" target="RurWiZB8BcjZz6UFfZch-29">
          <mxGeometry relative="1" as="geometry" />
        </mxCell>
        <mxCell id="RurWiZB8BcjZz6UFfZch-78" style="edgeStyle=none;rounded=0;orthogonalLoop=1;jettySize=auto;html=1;startArrow=none;startFill=0;endArrow=none;endFill=0;" edge="1" parent="1" source="RurWiZB8BcjZz6UFfZch-76" target="RurWiZB8BcjZz6UFfZch-42">
          <mxGeometry relative="1" as="geometry" />
        </mxCell>
        <mxCell id="RurWiZB8BcjZz6UFfZch-76" value="leito" style="shape=rhombus;perimeter=rhombusPerimeter;whiteSpace=wrap;html=1;align=center;fillColor=#d5e8d4;strokeColor=#82b366;" vertex="1" parent="1">
          <mxGeometry x="310" y="310" width="120" height="60" as="geometry" />
        </mxCell>
        <mxCell id="RurWiZB8BcjZz6UFfZch-80" style="edgeStyle=none;rounded=0;orthogonalLoop=1;jettySize=auto;html=1;startArrow=none;startFill=0;endArrow=none;endFill=0;" edge="1" parent="1" source="RurWiZB8BcjZz6UFfZch-79" target="RurWiZB8BcjZz6UFfZch-39">
          <mxGeometry relative="1" as="geometry" />
        </mxCell>
        <mxCell id="RurWiZB8BcjZz6UFfZch-79" value="nome" style="ellipse;whiteSpace=wrap;html=1;align=center;" vertex="1" parent="1">
          <mxGeometry x="700" y="160" width="100" height="40" as="geometry" />
        </mxCell>
        <mxCell id="RurWiZB8BcjZz6UFfZch-62" value="outros_medicos" style="shape=rhombus;perimeter=rhombusPerimeter;whiteSpace=wrap;html=1;align=center;fillColor=#d5e8d4;strokeColor=#82b366;" vertex="1" parent="1">
          <mxGeometry x="250" y="190" width="120" height="60" as="geometry" />
        </mxCell>
        <mxCell id="RurWiZB8BcjZz6UFfZch-85" style="edgeStyle=none;rounded=0;orthogonalLoop=1;jettySize=auto;html=1;exitX=0.5;exitY=1;exitDx=0;exitDy=0;startArrow=none;startFill=0;endArrow=none;endFill=0;" edge="1" parent="1" source="RurWiZB8BcjZz6UFfZch-37" target="RurWiZB8BcjZz6UFfZch-37">
          <mxGeometry relative="1" as="geometry" />
        </mxCell>
      </root>
    </mxGraphModel>
  </diagram>
</mxfile>
